# xmcd CD database file
# Generated: Sat Sep 22 12:56:04 2001 by KSCD
# 
# Track frame offsets:
#       183
#       16370
#       29608
#       45583
#       65308
#       85570
#       103658
#       121570
#       145008
#       166845
#       187483
#       209133
#       223145
#       239120
#       259958
#       284470
#
# Disc length: 4075 seconds
#
# Revision: 3
# Processed by: cddbd v1.4PL0 Copyright (c) Steve Scherf et al.
# Submitted via: Kscd 1.3.2
#
DISCID=f40fe910
DTITLE=Ana Belén y Víctor Manuel - Mucho más que dos (Volumen 2) 
DYEAR=1900
DGENRE=
TTITLE0=Mediterráneo
TTITLE1=La paloma
TTITLE2=Soy un corazón tendido al sol
TTITLE3=Yo también nací en el 53
TTITLE4=Luna
TTITLE5=Blues del autobús
TTITLE6=El abuelo Vitor
TTITLE7=El hombre del piano
TTITLE8=La madre
TTITLE9=Marilyn Monroe
TTITLE10=Cruzar los brazos
TTITLE11=Quiero abrazarte tanto
TTITLE12=Desde mi libertad
TTITLE13=Asturias
TTITLE14=La Puerta de Alcalá
TTITLE15=La muralla
EXTD=
EXTT0=
EXTT1=
EXTT2=
EXTT3=
EXTT4=
EXTT5=
EXTT6=
EXTT7=
EXTT8=
EXTT9=
EXTT10=
EXTT11=
EXTT12=
EXTT13=
EXTT14=
EXTT15=
PLAYORDER=
